<?xml version="1.0" encoding="UTF-8"?>
<!DOCTYPE svg PUBLIC "-//W3C//DTD SVG 20010904//EN" "http://www.w3.org/TR/2001/REC-SVG-20010904/DTD/svg10.dtd">
<svg width="119.04pt" height="122.88pt" viewBox="0 0 119.04 122.88" xmlns="http://www.w3.org/2000/svg">
<path transform="matrix(.24 0 0 .24 0 1.92)" d="m225.38 225.37c-12.5 12.5-12.5 32.76 0 45.25 12.49 12.5 32.76 12.5 45.25 0 12.5-12.5 12.5-32.76 0-45.25s-32.76-12.49-45.25 0zm22.62-225.37c-136.97 0-248 111.03-248 248s111.03 248 248 248 248-111.03 248-248-111.03-248-248-248zm126.14 148.05-65.97 144.35c-3.191 6.981-8.789 12.579-15.77 15.77l-144.34 65.97c-16.65 7.61-33.81-9.55-26.2-26.2l65.98-144.35c3.191-6.981 8.789-12.579 15.77-15.77l144.34-65.97c16.65-7.6 33.8 9.55 26.19 26.2z" fill="currentColor" stroke="#000" stroke-linecap="square" stroke-linejoin="bevel" stroke-opacity="0" stroke-width="0"/>
</svg>