<?xml version="1.0" standalone="no"?>
<!DOCTYPE svg PUBLIC "-//W3C//DTD SVG 20010904//EN" "http://www.w3.org/TR/2001/REC-SVG-20010904/DTD/svg10.dtd">
<!-- Created using Krita: https://krita.org -->
<svg xmlns="http://www.w3.org/2000/svg" 
    xmlns:xlink="http://www.w3.org/1999/xlink"
    xmlns:krita="http://krita.org/namespaces/svg/krita"
    xmlns:sodipodi="http://sodipodi.sourceforge.net/DTD/sodipodi-0.dtd"
    width="122.88pt"
    height="122.88pt"
    viewBox="0 0 122.88 122.88">
<defs/>
<path id="shape0" transform="matrix(0.24 0 0 0.24 0 7.68)" fill="#b9bbbe" stroke-opacity="0" stroke="#000000" stroke-width="0" stroke-linecap="square" stroke-linejoin="bevel" d="M32 416C32 433.7 46.3 448 64 448L224 448L224 288L32 288ZM288 448L448 448C465.7 448 480 433.7 480 416L480 288L288 288ZM480 128L437.9 128C444.1 115.9 448 102.5 448 88C448 39.5 408.5 0 360 0C318.4 0 291.5 21.3 257 68.3C222.5 21.3 195.6 0 154 0C105.5 0 66 39.5 66 88C66 102.5 69.8 115.9 76.1 128L32 128C14.3 128 0 142.3 0 160L0 240C0 248.8 7.2 256 16 256L496 256C504.8 256 512 248.8 512 240L512 160C512 142.3 497.7 128 480 128ZM153.9 128C131.8 128 113.9 110.1 113.9 88C113.9 65.9 131.8 48 153.9 48C173.8 48 188.5 51.3 240 128ZM360 128L273.9 128C325.3 51.5 339.6 48 360 48C382.1 48 400 65.9 400 88C400 110.1 382.1 128 360 128Z" sodipodi:nodetypes="cccccccccccccccccccccccccccccccccccccc"/>
</svg>
