<?xml version="1.0" standalone="no"?>
<!DOCTYPE svg PUBLIC "-//W3C//DTD SVG 20010904//EN" "http://www.w3.org/TR/2001/REC-SVG-20010904/DTD/svg10.dtd">
<!-- Created using Krita: https://krita.org -->
<svg xmlns="http://www.w3.org/2000/svg" 
    xmlns:xlink="http://www.w3.org/1999/xlink"
    xmlns:krita="http://krita.org/namespaces/svg/krita"
    xmlns:sodipodi="http://sodipodi.sourceforge.net/DTD/sodipodi-0.dtd"
    width="107.52pt"
    height="122.88pt"
    viewBox="0 0 107.52 122.88">
<defs/>
<path id="shape0" transform="matrix(0.24 0 0 0.24 -2.64550671343789e-05 7.68)" fill="#b9bbbe" stroke-opacity="0" stroke="#000000" stroke-width="0" stroke-linecap="square" stroke-linejoin="bevel" d="M440.667 150.109L447.81 110.109C449.123 102.754 443.468 96 435.997 96L361.187 96L375.81 14.109C377.123 6.754 371.468 0 363.997 0L323.365 0C317.551 0.000105606 312.574 4.16772 311.552 9.891L296.175 96L197.54 96L212.163 14.109C213.477 6.754 207.822 0 200.35 0L159.718 0C153.904 0.000105606 148.927 4.16772 147.905 9.891L132.528 96L53.4321 96C47.6183 96.0001 42.6409 100.168 41.6191 105.891L34.4761 145.891C33.1631 153.246 38.8181 160 46.2891 160L121.099 160L98.2421 288L19.1461 288C13.3323 288 8.35488 292.168 7.33311 297.891L0.19011 337.891C-1.12289 345.246 4.53211 352 12.0031 352L86.8131 352L72.1901 433.891C70.8771 441.246 76.5321 448 84.0031 448L124.635 448C130.449 448 135.426 443.832 136.448 438.109L151.826 352L250.46 352L235.837 433.891C234.523 441.246 240.178 448 247.65 448L288.282 448C294.096 448 299.073 443.832 300.095 438.109L315.472 352L394.568 352C400.382 352 405.359 347.832 406.381 342.109L413.524 302.109C414.837 294.754 409.182 288 401.711 288L326.901 288L349.758 160L428.854 160C434.668 160 439.645 155.832 440.667 150.109ZM261.889 288L163.255 288L186.112 160L284.746 160Z" sodipodi:nodetypes="cccccccccccccccccccccccccccccccccccccccccccccccccc"/>
</svg>
