<?xml version="1.0" standalone="no"?>
<!DOCTYPE svg PUBLIC "-//W3C//DTD SVG 20010904//EN" "http://www.w3.org/TR/2001/REC-SVG-20010904/DTD/svg10.dtd">
<!-- Created using Krita: https://krita.org -->
<svg xmlns="http://www.w3.org/2000/svg" 
    xmlns:xlink="http://www.w3.org/1999/xlink"
    xmlns:krita="http://krita.org/namespaces/svg/krita"
    xmlns:sodipodi="http://sodipodi.sourceforge.net/DTD/sodipodi-0.dtd"
    width="384pt"
    height="384pt"
    viewBox="0 0 384 384">
<defs/>
<rect id="shape0" fill="#5865f2" fill-rule="evenodd" stroke="#5865f2" stroke-width="1.5096" stroke-linecap="square" stroke-linejoin="bevel" width="384" height="384"/><rect id="shape1" transform="matrix(0.952227373090236 -0.305389963714721 0.305389963714721 0.952227373090236 34.484703784122 115.440314381076)" fill="#eb459e" fill-rule="evenodd" stroke="#000000" stroke-width="3.7512" stroke-linecap="square" stroke-linejoin="bevel" width="59.8871616413073" height="89.4210394677858" rx="12.3745019568396" ry="12.8048762569874"/><rect id="shape2" transform="matrix(0.879699951636593 0.47552917375343 -0.47552917375343 0.879699951636593 94.572909614371 143.711049440155)" fill="#fee75c" fill-rule="evenodd" stroke="#000000" stroke-width="2.7792" stroke-linecap="square" stroke-linejoin="bevel" width="12.4868734467822" height="25.437019734623" rx="6.24343672339108" ry="5.20302676390016"/><path id="shape3" transform="translate(281.391325087612, 29.2877524283692)" fill="#fee75c" fill-rule="evenodd" stroke="#000000" stroke-width="3.7512" stroke-linecap="square" stroke-linejoin="bevel" d="M65.5803 31.6004C62.2875 41.7292 56.4339 58.3436 48.0195 81.4436C41.4465 78.4114 43.7858 72.4094 41.6263 71.6861C39.4668 70.9628 35.7998 75.6295 31.1056 75.7037C27.1099 71.5793 27.1461 66.9635 25.0885 66.3176C23.031 65.6717 20.0822 69.8001 14.9487 70.2005C11.0266 65.935 12.3189 61.6187 10.4262 60.9821C8.53354 60.3454 7.57721 65.3351 0 64.6238C8.2538 40.8935 14.333 24.1061 18.2377 14.2614C23.1367 1.91001 36.497 -2.74964 49.9219 1.5861C63.3467 5.92184 69.3482 20.0101 65.5803 31.6004Z" sodipodi:nodetypes="ccccccccszs"/><rect id="shape4" transform="matrix(0.945303037596772 -0.326193450440578 0.326193450440578 0.945303037596772 45.4992556689106 123.520233357031)" fill="#57f287" fill-rule="evenodd" stroke="#000000" stroke-width="4.6152" stroke-linecap="square" stroke-linejoin="bevel" width="43.0910141142445" height="29.9937205687294" rx="4.05340078624369" ry="4.05340078624369"/><ellipse id="shape5" transform="matrix(0.999999809986372 0.00061646347793126 -0.00061646347793126 0.999999809986372 92.5891122851033 149.783069528677)" rx="3.96" ry="3.72" cx="3.96" cy="3.72" fill="#ed4245" fill-rule="evenodd" stroke="#000000" stroke-width="2.7792" stroke-linecap="square" stroke-linejoin="bevel"/><ellipse id="shape0" transform="matrix(0.999999778026027 0.000616463458228871 -0.000616463458228871 0.999999778026027 87.7769141468352 158.550221585144)" rx="3.96" ry="3.72" cx="3.96" cy="3.72" fill="#ed4245" stroke="#000000" stroke-width="2.7792" stroke-linecap="square" stroke-linejoin="bevel"/><path id="shape6" transform="matrix(0.945303037596772 -0.326193450440578 0.326193450440578 0.945303037596772 62.5988857840402 161.408409672687)" fill="#ed4245" fill-rule="evenodd" stroke="#000000" stroke-width="2.7792" stroke-linecap="square" stroke-linejoin="bevel" d="M6.26535 12.4472C6.26535 16.8872 6.21968 17.76 6.21153 17.76L0.0305962 17.76C0.0131067 17.7486 0.0780888 14.5698 0.0723667 12.2211M0.000253155 6.14243C-0.00214023 1.70108 0.0127776 -0.00542834 0.0305962 1.2967e-05L6.21153 1.2967e-05C6.2156 1.2967e-05 6.27429 3.48608 6.29599 6.16847" sodipodi:nodetypes="cccccccc"/><path id="shape01" transform="matrix(0.31756842493337 0.948235362077607 -0.948235362077607 0.31756842493337 75.87981945069 163.511853543258)" fill="#ed4245" stroke="#000000" stroke-width="2.7792" stroke-linecap="square" stroke-linejoin="bevel" d="M6.05538 11.7117C6.06261 14.2298 6.05296 17.76 6.03731 17.76L0.0240244 17.76C-0.0389926 17.7553 0.0409776 16.3862 0.048906 11.9474M0.0203928 5.53813C0.0110721 3.10975 0.0122199 0.0145686 0.0336364 0.0143572L6.03731 0C6.0655 0.000114036 6.02287 1.02756 6.02364 5.46753" sodipodi:nodetypes="cccccccc"/><ellipse id="shape7" transform="translate(223.93290085277, 346.662144009021)" rx="6.48" ry="6.59999999999999" cx="6.48" cy="6.59999999999999" fill="#eb459e" fill-rule="evenodd" stroke="#000000" stroke-width="2.7792" stroke-linecap="square" stroke-linejoin="bevel"/><rect id="shape8" transform="matrix(-0.822196681904818 -0.569203492843051 0.569203492843051 -0.822196681904818 128.140848538919 215.751828666374)" fill="#fee75c" fill-rule="evenodd" stroke="#000000" stroke-width="2.7792" stroke-linecap="square" stroke-linejoin="bevel" width="5.04000000000001" height="12.48"/><rect id="shape9" transform="matrix(-0.962483063562945 0.271341763012085 -0.271341763012085 -0.962483063562945 169.219654736554 115.123681626676)" fill="#ed4245" fill-rule="evenodd" stroke="#000000" stroke-width="2.7792" stroke-linecap="square" stroke-linejoin="bevel" width="12" height="4.8"/><rect id="shape10" transform="matrix(0.629161376509389 0.777274701961163 -0.777274701961163 0.629161376509389 269.034326028163 363.65652138496)" fill="#fee75c" fill-rule="evenodd" stroke="#000000" stroke-width="2.7792" stroke-linecap="square" stroke-linejoin="bevel" width="4.08" height="10.56"/><rect id="shape11" transform="matrix(0.831842837979116 -0.555011254753321 0.555011254753321 0.831842837979116 156.166564854754 349.797969294065)" fill="#181ed2" fill-rule="evenodd" stroke="#000000" stroke-width="2.7792" stroke-linecap="square" stroke-linejoin="bevel" width="4.31999999999999" height="10.56"/><ellipse id="shape12" transform="matrix(0.943778688237292 0.330577959986909 -0.330577959986909 0.943778688237292 307.442744418239 42.554692365807)" rx="7.20000000000002" ry="10.8" cx="7.20000000000002" cy="10.8" fill="#ffffff" fill-rule="evenodd" stroke="#000000" stroke-width="3.7512" stroke-linecap="square" stroke-linejoin="bevel"/><ellipse id="shape02" transform="matrix(0.943778644393899 0.330577944629855 -0.330577944629855 0.943778644393899 327.584827397409 49.9861552323044)" rx="7.20000000000002" ry="10.8" cx="7.20000000000002" cy="10.8" fill="#ffffff" stroke="#000000" stroke-width="3.7512" stroke-linecap="square" stroke-linejoin="bevel"/><ellipse id="shape03" transform="matrix(0.943778682831364 0.33057795809337 -0.33057795809337 0.943778682831364 325.75258437219 59.0629734562516)" rx="5.37466059108496" ry="5.65006228550179" cx="5.37466059108496" cy="5.65006228550179" fill="#57f287" stroke="#000000" stroke-width="3.7512" stroke-linecap="square" stroke-linejoin="bevel"/><rect id="shape1" transform="matrix(0.408970767381635 0.912547525547136 -0.912547525547136 0.408970767381635 180.372247232594 55.2101120742192)" fill="#57f287" stroke="#000000" stroke-width="2.7792" stroke-linecap="square" stroke-linejoin="bevel" width="5.04000000000001" height="12.48"/><rect id="shape2" transform="matrix(-0.712211981840453 0.701964506138224 -0.701964506138224 -0.712211981840453 86.7509897047663 248.330509393071)" fill="#eb459e" stroke="#000000" stroke-width="2.7792" stroke-linecap="square" stroke-linejoin="bevel" width="4.31999999999999" height="12.24"/><rect id="shape11" transform="matrix(-0.583959282131069 -0.811782885669887 0.811782885669887 -0.583959282131069 221.523014656443 168.815723395729)" fill="#eb459e" stroke="#000000" stroke-width="2.7792" stroke-linecap="square" stroke-linejoin="bevel" width="4.08" height="10.56"/><rect id="shape04" transform="matrix(0.485453712541877 0.980374757568784 -0.977372377867474 0.415993143774533 298.802160434327 185.938973421385)" fill="#fee75c" stroke="#000000" stroke-width="2.7792" stroke-linecap="square" stroke-linejoin="bevel" width="5.04000000000001" height="12.48"/><rect id="shape21" transform="matrix(0.12992195375132 1.06308812564009 -1.08353229527083 0.0634703147503993 334.480192978627 131.276378779044)" fill="#57f287" stroke="#000000" stroke-width="2.7792" stroke-linecap="square" stroke-linejoin="bevel" width="4.08" height="10.56"/><ellipse id="shape05" transform="matrix(0.824878004891539 0.565310803937928 -0.565310803937928 0.824878004891539 99.4729631717905 326.957043864339)" rx="4.32000000000001" ry="4.56" cx="4.32000000000001" cy="4.56" fill="#fee75c" stroke="#000000" stroke-width="2.7792" stroke-linecap="square" stroke-linejoin="bevel"/><rect id="shape12" transform="matrix(0.408970757780612 0.912547504124113 -0.912547504124113 0.408970757780612 72.3000564112685 299.98926861658)" fill="#ed4245" stroke="#000000" stroke-width="2.7792" stroke-linecap="square" stroke-linejoin="bevel" width="5.04000000000001" height="12.48"/><ellipse id="shape01" transform="matrix(0.999999924850706 0 0 0.999999924850706 125.189330158362 245.708246653295)" rx="6.48" ry="6.59999999999999" cx="6.48" cy="6.59999999999999" fill="#181ed2" stroke="#000000" stroke-width="2.7792" stroke-linecap="square" stroke-linejoin="bevel"/><rect id="shape22" transform="matrix(0.629161329228356 0.777274643549517 -0.777274643549517 0.629161329228356 194.872763573741 309.757180570766)" fill="#57f287" stroke="#000000" stroke-width="2.7792" stroke-linecap="square" stroke-linejoin="bevel" width="4.08" height="10.56"/><rect id="shape3" transform="matrix(0.831842775466714 -0.555011213044618 0.555011213044618 0.831842775466714 197.005002615844 235.346780930745)" fill="#ed4245" stroke="#000000" stroke-width="2.7792" stroke-linecap="square" stroke-linejoin="bevel" width="4.31999999999999" height="10.56"/><rect id="shape13" transform="matrix(0.986529600029624 0.16358253243834 -0.16358253243834 0.986529600029624 363.867876480198 298.518514690596)" fill="#57f287" stroke="#000000" stroke-width="2.7792" stroke-linecap="square" stroke-linejoin="bevel" width="4.08" height="10.56"/><ellipse id="shape06" transform="matrix(0.870343515261819 -0.49244491246165 0.49244491246165 0.870343515261819 26.7875089323576 46.274391022857)" rx="6.48" ry="6.59999999999999" cx="6.48" cy="6.59999999999999" fill="#fee75c" stroke="#000000" stroke-width="2.7792" stroke-linecap="square" stroke-linejoin="bevel"/><rect id="shape23" transform="matrix(0.930351496664067 0.366668677449544 -0.366668677449544 0.930351496664067 73.9365128386784 37.1256429449688)" fill="#eb459e" stroke="#000000" stroke-width="2.7792" stroke-linecap="square" stroke-linejoin="bevel" width="4.08" height="10.56"/><ellipse id="shape07" transform="matrix(0.999999948326767 0 0 0.999999948326767 19.6572102134269 200.501138296285)" rx="3.96" ry="3.84" cx="3.96" cy="3.84" fill="#57f287" stroke="#000000" stroke-width="2.7792" stroke-linecap="square" stroke-linejoin="bevel"/><rect id="shape13" transform="matrix(0.799698512724754 0.184487242945213 -0.18002041126478 0.780443206644996 260.897853783675 226.749276840379)" fill="#ed4245" fill-rule="evenodd" stroke="#000000" stroke-width="3.7512" stroke-linecap="square" stroke-linejoin="bevel" width="109.44" height="109.68" rx="9.24629197832748" ry="9.24629197832748"/><path id="shape14" transform="matrix(0.799698512724754 0.184487242945213 -0.18002041126478 0.780443206644996 255.478209098942 254.159817303441)" fill="none" stroke="#000000" stroke-width="3.7512" stroke-linecap="square" stroke-linejoin="miter" stroke-miterlimit="2" d="M0 0.788039L107.721 0" sodipodi:nodetypes="cc"/><path id="shape15" transform="matrix(0.799698512724754 0.184487242945213 -0.18002041126478 0.780443206644996 248.724340058163 284.311874643049)" fill="none" stroke="#000000" stroke-width="3.7512" stroke-linecap="square" stroke-linejoin="miter" stroke-miterlimit="2" d="M0 0.573119L107.861 0" sodipodi:nodetypes="cc"/><path id="shape16" transform="matrix(0.799698512724754 0.184487242945213 -0.18002041126478 0.780443206644996 327.057926959411 241.912481571189)" fill="none" stroke="#000000" stroke-width="3.7512" stroke-linecap="square" stroke-linejoin="miter" stroke-miterlimit="2" d="M0.039801 0L0 35.0498" sodipodi:nodetypes="cc"/><path id="shape17" transform="matrix(0.799698512724754 0.184487242945213 -0.18002041126478 0.780443206644996 270.955558441297 259.943961937137)" fill="none" stroke="#000000" stroke-width="3.7512" stroke-linecap="square" stroke-linejoin="miter" stroke-miterlimit="2" d="M0 0L0.756219 36.2677" sodipodi:nodetypes="cc"/><path id="shape18" transform="matrix(0.799698512724754 0.184487242945213 -0.18002041126478 0.780443206644996 312.226691670166 300.324516808927)" fill="none" stroke="#000000" stroke-width="3.7512" stroke-linecap="square" stroke-linejoin="miter" stroke-miterlimit="2" d="M0.159204 0L0 32.6857" sodipodi:nodetypes="cc"/><ellipse id="shape08" transform="matrix(0.943778690294387 0.330577960707448 -0.330577960707448 0.943778690294387 305.906566033815 52.8384171506404)" rx="5.37466059108496" ry="5.65006228550179" cx="5.37466059108496" cy="5.65006228550179" fill="#57f287" stroke="#000000" stroke-width="3.7512" stroke-linecap="square" stroke-linejoin="bevel"/>
</svg>
