<?xml version="1.0" encoding="UTF-8"?>
<!DOCTYPE svg PUBLIC "-//W3C//DTD SVG 20010904//EN" "http://www.w3.org/TR/2001/REC-SVG-20010904/DTD/svg10.dtd">
<svg width="150.24pt" height="150.24pt" viewBox="0 0 150.24 150.24" xmlns="http://www.w3.org/2000/svg">
<path transform="matrix(1 0 0 1 10 25)" d="m7.9169 19.071 0.1848-0.4107 0.1959-0.4089 0.2068-0.4071 0.2176-0.4052 0.2283-0.4032 0.2388-0.4011 0.2492-0.399 0.2596-0.3967 0.2697-0.3944 0.27983-0.3919 0.2897-0.3894 0.2995-0.3869 0.3093-0.3841 0.3188-0.3814 0.3283-0.3785 0.3376-0.3756 0.3468-0.3726 0.3559-0.3694 0.3649-0.3663 0.3737-0.363 0.3825-0.3596 0.391-0.3562 0.3995-0.3526 0.4079-0.349 0.4162-0.3453 0.4242-0.3414 0.4323-0.3376 0.4401-0.3337 0.4479-0.3296 0.4555-0.3254 0.463-0.3212 0.4704-0.3169 0.4777-0.3125 0.4848-0.3081 0.4918-0.3034 0.4988-0.2988 0.5055-0.2941 0.5122-0.2892 0.5187-0.2843 0.5252-0.27933 0.5314-0.27424 0.5376-0.26907 0.5437-0.26381 0.5496-0.25847 0.5554-0.25305 0.561-0.24753 0.5667-0.24193 0.5721-0.23625 0.5774-0.23047 0.5826-0.22462 0.5877-0.21868 0.5927-0.21265 0.5975-0.20654 0.6022-0.20034 0.6068-0.19405 0.6113-0.18769 0.6156-0.18122 0.6199-0.17468 0.624-0.16806 0.6279-0.16134 0.6318-0.15454 0.6356-0.14765 0.6392-0.14069 0.3617 0.06656 0.3544 0.07656 0.3474 0.08634 0.3407 0.09592 0.3342 0.10528 0.3279 0.11444 0.322 0.12336 0.3164 0.1321 0.3109 0.14061 0.3057 0.14891 0.3009 0.157 0.2962 0.16487 0.2919 0.17255 0.2877 0.17999 0.284 0.18724 0.2804 0.19426 0.2771 0.20108 0.2741 0.20769 0.2713 0.21408 0.2688 0.22025 0.2665 0.22623 0.2647 0.23198 0.2629 0.23753 0.2614 0.24286 0.2603 0.24798 0.2594 0.25288 0.2588 0.25758 0.2584 0.26207 0.2583 0.2663 0.2584 0.2704 0.2589 0.2743 0.2596 0.2778 0.2605 0.2813 0.2617 0.2846 0.2633 0.2875 0.2649 0.2903 0.267 0.2928 0.2693 0.2952 0.2719 0.2974 0.2746 0.2993 0.2778 0.3011 0.2811 0.3025 0.2847 0.3039 0.2886 0.305 0.2927 0.3058 0.2971 0.3065 0.3018 0.3069 0.3068 0.3072 0.312 0.3072 0.3174 0.307 0.3232 0.3067 0.3292 0.306 0.3355 0.3052 0.342 0.3042 0.3488 0.3029 0.3558 0.3015 0.3632 0.2998 0.3708 0.2979 0.3787 0.2958 0.3868 0.2935 0.3952 0.2911 0.4039 0.2882 0.4128 0.2854 0.4714 1e-4 0.4502 5e-4 0.4298 7e-4 0.4103 1e-3 0.3915 0.0012 0.3738 0.0015 0.3569 0.0018 0.3409 2e-3 0.3256 0.0022 0.3114 0.0024 0.2979 0.0026 0.2854 0.0029 0.2738 3e-3 0.2629 0.0031 0.2529 0.0034 0.244 0.0035 0.2357 0.0037 0.2284 0.0038 0.222 0.0039 0.2164 4e-3 0.2117 0.0042 0.2079 0.0042 0.2049 0.0044 0.2029 0.0044 0.2016 0.0045 0.2013 0.0046 0.2019 0.0046 0.2033 0.0046 0.2055 0.0047 0.2088 0.0047 0.4304 0.0095 0.2234 0.0047 0.2301 0.0047 0.2376 0.0047 0.246 0.0046 0.2553 0.0047 0.2654 0.0045 0.2765 0.0045 0.2883 0.0044 0.3011 0.0044 0.3147 0.0042 0.3292 0.0042 0.3446 4e-3 0.3609 0.0039 0.378 0.0038 0.3959 0.0037 0.4149 0.0035 0.4346 0.0034 0.4552 0.0031 0.4767 0.0031 0.4991 0.0028 0.5223 0.0026 0.5464 0.0024 0.5714 0.0022 0.5972 2e-3 0.624 0.0018 0.6515 0.0015 0.6801 0.0012 0.7093 1e-3 0.7396 7e-4 0.7707 5e-4 0.8027 1e-4 0.4078-0.0112 0.4044-0.0333 0.4011-0.0546 0.3979-0.0751 0.3947-0.095 0.3916-0.1141 0.3886-0.1325 0.3855-0.1502 0.3826-0.1671 0.3797-0.1833 0.3769-0.1989 0.3741-0.2136 0.3714-0.2276 0.3687-0.2409 0.3662-0.2536 0.3636-0.2654 0.3611-0.2765 0.3586-0.2869 0.3563-0.2967 0.354-0.3056 0.3518-0.3138 0.3495-0.3213 0.3474-0.3281 0.3453-0.3342 0.3433-0.3395 0.3414-0.3441 0.3394-0.348 0.3375-0.3511 0.3358-0.3536 0.3341-0.3552 0.3323-0.3563 0.3307-0.3564 0.3292-0.3561 0.3277-0.3548 0.3262-0.3529 0.3248-0.3502 0.3235-0.3469 0.3222-0.3427 0.321-0.3379 0.3198-0.3324 0.3187-0.32607 0.3177-0.31908 0.3167-0.31134 0.3158-0.30288 0.3149-0.2937 0.3144-0.28379 0.313-0.27315 0.313-0.26179 0.312-0.24971 0.311-0.23689 0.311-0.22335 0.31-0.20908 0.31-0.1941 0.31-0.17838 0.309-0.16193 0.309-0.14477 0.309-0.12688 0.309-0.10825 0.308-0.08891 0.309-0.06884 0.309-0.04804 0.309-0.02652 0.309-0.00427 0.8228 0.17201 0.81 0.18009 0.799 0.18798 0.785 0.1957 0.774 0.20322 0.76 0.21057 0.749 0.21773 0.736 0.22472 0.724 0.23152 0.712 0.23813 0.699 0.24457 0.687 0.25083 0.676 0.25689 0.662 0.26278 0.651 0.26849 0.639 0.27401 0.627 0.27936 0.615 0.28451 0.602 0.28951 0.591 0.2943 0.579 0.2989 0.567 0.3033 0.555 0.3076 0.544 0.3116 0.531 0.3155 0.52 0.3192 0.508 0.3228 0.497 0.326 0.485 0.3293 0.473 0.3322 0.461 0.335 0.45 0.3375 0.439 0.3401 0.427 0.3422 0.415 0.3443 0.405 0.3462 0.392 0.3479 0.382 0.3494 0.37 0.3508 0.358 0.3518 0.348 0.3529 0.336 0.3536 0.325 0.3542 0.314 0.3547 0.303 0.3549 0.291 0.3549 0.281 0.3548 0.269 0.3545 0.259 0.354 0.247 0.3533 0.237 0.3525 0.225 0.3514 0.215 0.3502 0.204 0.3488 0.193 0.3473 0.182 0.3454 0.172 0.3435 0.161 0.3413 0.15 0.3391 0.139 0.3365 0.129 0.3339 0.118 0.331 0.108 0.3279 0.251 0.8968 0.248 0.9008 0.247 0.9048 0.245 0.9086 0.242 0.9121 0.24 0.9155 0.237 0.9186 0.235 0.9217 0.232 0.9246 0.229 0.9271 0.226 0.9297 0.223 0.9319 0.22 0.934 0.217 0.9359 0.213 0.9376 0.21 0.9392 0.206 0.9405 0.202 0.9416 0.199 0.9427 0.195 0.9435 0.19 0.944 0.186 0.9445 0.182 0.9448 0.178 0.9448 0.173 0.9447 0.169 0.9444 0.164 0.9438 0.158 0.9433 0.154 0.9423 0.149 0.9413 0.144 0.9401 0.138 0.9386 0.134 0.9371 0.127 0.9352 0.122 0.9333 0.116 0.9312 0.11 0.9288 0.105 0.9263 0.098 0.9236 0.092 0.9207 0.086 0.9176 0.08 0.9143 0.072 0.9109 0.067 0.9073 0.059 0.9035 0.053 0.8995 0.046 0.8952 0.039 0.891 0.031 0.8863 0.024 0.8817 0.017 0.8767 0.01 0.8716 1e-3 0.8663-6e-3 0.8608-0.013 0.8552-0.022 0.8494-0.03 0.8433-0.038 0.8371-0.047 0.8307-0.054 0.8241-0.063 0.8174-0.072 0.8104-0.081 0.8033 2e-3 0.5009-0.024 0.4998-0.049 0.4984-0.075 0.497-0.098 0.4952-0.122 0.4932-0.145 0.4909-0.167 0.4886-0.189 0.4859-0.21 0.483-0.23 0.4799-0.25 0.4766-0.269 0.473-0.287 0.4692-0.305 0.4653-0.322 0.461-0.338 0.4566-0.354 0.452-0.37 0.447-0.384 0.442-0.397 0.4366-0.411 0.431-0.424 0.4253-0.435 0.4193-0.447 0.413-0.457 0.4066-0.467 0.4-0.477 0.393-0.485 0.3859-0.493 0.3786-0.5 0.371-0.508 0.3632-0.513 0.3553-0.519 0.347-0.524 0.3385-0.527 0.3299-0.532 0.3209-0.534 0.3119-0.536 0.3024-0.538 0.293-0.539 0.2831-0.539 0.2731-0.538 0.2629-0.538 0.2528-0.536 0.241-0.533 0.231-0.531 0.22-0.527 0.208-0.523 0.197-0.517 0.185-0.513 0.173-0.506 0.161-0.499 0.148-0.491 0.135-0.484 0.123-0.475 0.109-0.465 0.097-0.455 0.082-0.445 0.069-0.433 0.055-0.421 0.04-0.408 0.026-0.395 0.011-0.39-7e-3 -0.395-0.028-0.398-0.048-0.402-0.068-0.405-0.086-0.409-0.105-0.413-0.123-0.416-0.139-0.419-0.156-0.422-0.171-0.425-0.186-0.428-0.199-0.431-0.214-0.433-0.226-0.435-0.238-0.439-0.25-0.44-0.26-0.442-0.2699-0.445-0.2795-0.446-0.288-0.448-0.296-0.45-0.3032-0.452-0.3097-0.452-0.3156-0.4538-0.3208-0.456-0.3252-0.456-0.329-0.457-0.3321-0.458-0.3346-0.459-0.3362-0.459-0.3373-0.46-0.3376-0.461-0.3373-0.46-0.3363-0.461-0.3346-0.46-0.3321-0.461-0.3291-0.4598-0.3253-0.4599-0.3208-0.4594-0.3156-0.4588-0.3099-0.458-0.3032-0.4573-0.2961-0.4563-0.2882-0.4553-0.2795-0.4541-0.2703-0.4527-0.2603-0.4514-0.2496-0.4498-0.2383-0.4482-0.2263-0.4463-0.2135-0.4445-0.2001-0.4425-0.1861-0.4404-0.1712-0.4381-0.1557-0.4357-0.1396-0.4333-0.1228-0.4307-0.1052-0.4279-0.0869-0.4251-0.0681-0.4222-0.0484-0.4191-0.0282-0.4158-0.0072-0.8165 0.0069-0.7927 0.0064-0.7697 6e-3 -0.7471 0.0056-0.7253 0.0052-0.7039 0.0048-0.6833 0.0044-0.6631 4e-3 -0.6437 0.0037-0.6247 0.0033-0.6065 0.0029-0.5887 0.0026-0.5717 0.0023-0.5552 2e-3 -0.5393 0.0017-0.524 0.0014-0.5093 0.0011-0.4952 9e-4 -0.4817 6e-4 -0.4688 3e-4 -0.4565 2e-4 -0.4449-1e-4 -0.4338-4e-4 -0.4232-5e-4 -0.4134-7e-4 -0.4041-9e-4 -0.3955-0.0011-0.3873-0.0012-0.3798-0.0014-0.373-0.0016-0.3667-0.0016-0.361-0.0018-0.3559-0.0019-0.3515-0.0019-0.3476-0.0021-0.3443-0.0021-0.3416-0.0022-0.3395-0.0023-0.3381-0.0023-0.3371-0.0023-0.337-0.0024-0.3372-0.0023-0.6778-0.0048-0.3419-0.0023-0.3445-0.0023-0.3479-0.0022-0.3518-0.0023-0.3563-0.0021-0.3615-0.0021-0.3672-0.0019-0.3735-0.0019-0.3805-0.0018-0.388-0.0016-0.3961-0.0016-0.4049-0.0014-0.4142-0.0012-0.4241-0.0011-0.4347-9e-4 -0.4459-7e-4 -0.4575-5e-4 -0.4699-3e-4 -0.4829-2e-4 -0.4884 0.0106-0.4863 0.0314-0.4842 0.0514-0.4819 0.0707-0.4798 0.0894-0.4776 0.1075-0.4754 0.1248-0.4731 0.1414-0.4709 0.1574-0.4686 0.1726-0.4664 0.1872-0.464 0.2012-0.4618 0.2144-0.4594 0.2269-0.4571 0.2388-0.4548 0.25-0.4523 0.2605-0.45 0.2703-0.4476 0.2794-0.4452 0.2879-0.4428 0.2957-0.4403 0.3027-0.4378 0.3092-0.4354 0.3148-0.4329 0.32-0.4304 0.3242-0.4279 0.328-0.4253 0.331-0.4228 0.3332-0.4202 0.3349-0.4177 0.3359-0.415 0.3361-0.4125 0.3357-0.4098 0.3346-0.4072 0.3328-0.4045 0.3304-0.4019 0.3272-0.3991 0.3234-0.3965 0.3188-0.3938 0.3137-0.391 0.3078-0.3883 0.3013-0.3855 0.294-0.3828 0.286-0.38 0.2775-0.3771 0.2678-0.3744 0.259-0.3715 0.247-0.3686 0.236-0.3658 0.225-0.3629 0.211-0.3601 0.198-0.3571 0.184-0.3541 0.17-0.3513 0.154-0.3483 0.138-0.3453 0.121-0.3423 0.103-0.3394 0.086-0.3363 0.066-0.3333 0.047-0.3302 0.027-0.3272 6e-3 -0.3356-0.015-0.3549-0.035-0.3736-0.054-0.3914-0.074-0.4083-0.092-0.4247-0.111-0.4401-0.129-0.4547-0.146-0.4687-0.164-0.4818-0.18-0.4941-0.197-0.5057-0.213-0.5165-0.228-0.5264-0.243-0.5357-0.259-0.5441-0.272-0.5517-0.287-0.5586-0.2997-0.5647-0.3133-0.57-0.326-0.5745-0.3384-0.5783-0.3503-0.5812-0.3619-0.5834-0.373-0.5847-0.3838-0.5854-0.3941-0.5853-0.404-0.5842-0.4136-0.5826-0.4228-0.58-0.4315-0.5767-0.4398-0.5727-0.4477-0.5678-0.4553-0.5621-0.4624-0.55583-0.4691-0.5485-0.4755-0.5406-0.4814-0.5317-0.4869-0.5223-0.492-0.5119-0.4968-0.5008-0.5011-0.4889-0.5049-0.4762-0.5085-0.4628-0.5116-0.4485-0.5143-0.4335-0.5166-0.41773-0.5186-0.40113-0.52-0.38377-0.5211-0.36562-0.5218-0.3467-0.5221-0.32699-0.522-0.3065-0.5215-0.28522-0.5206-0.26318-0.5193-0.24034-0.5175-0.21672-0.5155-0.19232-0.5129-0.16715-0.51-0.14118-0.5067-0.11445-0.5029-0.08691-0.4989-0.05861-0.4943-0.00594-0.8989-0.00251-0.8904 9.6e-4 -0.8821 0.00447-0.8742 0.00803-0.8668 0.01161-0.8597 0.01525-0.8529 0.01892-0.8465 0.02263-0.8406 0.02638-0.8349 0.03016-0.8297 0.034-0.8248 0.03787-0.8203 0.04178-0.8161 0.04572-0.8124 0.04972-0.809 0.05374-0.806 0.05782-0.8033 0.06192-0.801 0.06607-0.7992 0.07025-0.7976 0.07449-0.7965 0.07875-0.7956 0.08306-0.7953 0.08741-0.7952 0.09179-0.7955 0.09622-0.7963 0.10069-0.7973 0.10519-0.7987 0.10974-0.8006 0.11433-0.8028 0.11895-0.8053 0.12361-0.8082 0.12832-0.8116 0.13307-0.8153 0.13785-0.8192 0.14268-0.8238 0.14754-0.8285 0.15244-0.8336 0.15739-0.8393 0.16237-0.8451 0.1674-0.8514 0.17246-0.8581 0.17756-0.865 0.18271-0.8725 0.18789-0.8803 0.19311-0.8884 0.19835-0.8969 0.2037-0.9058 0.209-0.9151 0.2144-0.9247 0.2198-0.9347 0.2253-0.945 0.2308-0.9559 0.2363-0.9669 0.2419-0.9784 0.2475-0.9903 0.2532-1.0026 0.2589-1.0151 0.2646-1.0281 0.2705-1.0415 0.2762-1.0552 0.2821-1.0693m109.08 28.988-7e-3 -0.6397-0.018-0.6356-0.031-0.6313-0.043-0.6269-0.055-0.6223-0.067-0.6173-0.078-0.6123-0.09-0.6071-0.102-0.6015-0.112-0.5959-0.124-0.5901-0.134-0.584-0.145-0.5777-0.156-0.5712-0.166-0.5646-0.176-0.5577-0.187-0.5507-0.196-0.5433-0.206-0.5359-0.216-0.5282-0.226-0.5204-0.234-0.5122-0.244-0.504-0.253-0.4955-0.262-0.4869-0.271-0.4779-0.279-0.4689-0.288-0.4596-0.296-0.4501-0.304-0.4405-0.312-0.4305-0.32-0.4205-0.327-0.4102-0.336-0.3997-0.342-0.389-0.35-0.3781-0.356-0.367-0.364-0.3558-0.37-0.3442-0.377-0.3326-0.384-0.3207-0.39-0.3085-0.396-0.2963-0.401-0.2838-0.408-0.2711-0.414-0.2582-0.418-0.2451-0.425-0.2318-0.429-0.2183-0.435-0.2046-0.439-0.1907-0.445-0.1766-0.449-0.1623-0.453-0.1478-0.458-0.1331-0.462-0.1182-0.465-0.1031-0.47-0.0877-0.474-0.0723-0.4771-0.0565-0.48-0.0407-0.483-0.0245-0.487-0.0082-0.487 0.0082-0.483 0.0245-0.481 0.0407-0.477 0.0565-0.473 0.0723-0.47 0.0877-0.466 0.1031-0.461 0.1182-0.4582 0.1331-0.4533 0.1478-0.449 0.1623-0.4443 0.1766-0.4395 0.1907-0.4346 0.2046-0.4296 0.2183-0.4243 0.2318-0.4189 0.2451-0.4134 0.2582-0.4077 0.2711-0.4019 0.2838-0.3959 0.2963-0.3897 0.3085-0.3835 0.3207-0.377 0.3326-0.3704 0.3442-0.3636 0.3558-0.3567 0.367-0.3497 0.3781-0.3425 0.389-0.3351 0.3997-0.3275 0.4102-0.3199 0.4205-0.3121 0.4305-0.3041 0.4405-0.296 0.4501-0.2877 0.4596-0.2792 0.4689-0.2707 0.4779-0.2619 0.4869-0.253 0.4955-0.244 0.504-0.2347 0.5122-0.2255 0.5204-0.2159 0.5282-0.2062 0.5359-0.1965 0.5433-0.1864 0.5507-0.1764 0.5577-0.1661 0.5646-0.1557 0.5712-0.145 0.5777-0.1344 0.584-0.1235 0.5901-0.1124 0.5959-0.1013 0.6015-0.0899 0.6071-0.0784 0.6123-0.0668 0.6173-0.055 0.6223-0.043 0.6269-0.0309 0.6313-0.0187 0.6356-0.0063 0.6397 0.0063 0.6396 0.0187 0.6356 0.0309 0.6314 0.043 0.6269 0.055 0.6222 0.0668 0.6174 0.0784 0.6123 0.0899 0.607 0.1013 0.6016 0.1124 0.5959 0.1235 0.59 0.1344 0.584 0.145 0.5777 0.1557 0.5713 0.1661 0.5646 0.1764 0.5577 0.1864 0.5506 0.1965 0.5434 0.2062 0.5359 0.2159 0.5282 0.2255 0.5203 0.2347 0.5123 0.244 0.504 0.253 0.4955 0.2619 0.4868 0.2707 0.478 0.2792 0.4689 0.2877 0.4596 0.296 0.4501 0.3041 0.4404 0.3121 0.4306 0.3199 0.4204 0.3275 0.4102 0.3351 0.3997 0.3425 0.389 0.3497 0.3781 0.3567 0.3671 0.3636 0.3557 0.3704 0.3443 0.377 0.3325 0.3835 0.3207 0.3897 0.3086 0.3959 0.2963 0.4019 0.2838 0.4077 0.2711 0.4134 0.2582 0.4189 0.2451 0.4243 0.2318 0.4296 0.2183 0.4346 0.2046 0.4395 0.1907 0.4443 0.1766 0.449 0.1623 0.4533 0.1478 0.4582 0.133 0.461 0.1182 0.466 0.1031 0.47 0.0878 0.473 0.0722 0.477 0.0566 0.481 0.0406 0.483 0.0246 0.487 0.0082 0.487-0.0082 0.483-0.0246 0.48-0.0406 0.4771-0.0566 0.474-0.0722 0.47-0.0878 0.465-0.1031 0.462-0.1182 0.458-0.133 0.453-0.1478 0.449-0.1623 0.445-0.1766 0.439-0.1907 0.435-0.2046 0.429-0.2183 0.425-0.2318 0.418-0.2451 0.414-0.2582 0.408-0.2711 0.401-0.2838 0.396-0.2963 0.39-0.3086 0.384-0.3207 0.377-0.3325 0.37-0.3443 0.364-0.3557 0.356-0.3671 0.35-0.3781 0.342-0.389 0.336-0.3997 0.327-0.4102 0.32-0.4204 0.312-0.4306 0.304-0.4404 0.296-0.4501 0.288-0.4596 0.279-0.4689 0.271-0.478 0.262-0.4868 0.253-0.4955 0.244-0.504 0.234-0.5123 0.226-0.5203 0.216-0.5282 0.206-0.5359 0.196-0.5434 0.187-0.5506 0.176-0.5577 0.166-0.5646 0.156-0.5713 0.145-0.5777 0.134-0.584 0.124-0.59 0.112-0.5959 0.102-0.6016 0.09-0.607 0.078-0.6123 0.067-0.6174 0.055-0.6222 0.043-0.6269 0.031-0.6314 0.018-0.6356 7e-3 -0.6396m-54.024 0.682-0.0063-0.6397-0.0187-0.6356-0.0309-0.6313-0.043-0.6269-0.055-0.6222-0.0668-0.6174-0.0784-0.6123-0.0899-0.607-0.1013-0.6016-0.1124-0.5959-0.1235-0.5901-0.1343-0.584-0.1451-0.5777-0.1557-0.5712-0.1661-0.5646-0.1763-0.5577-0.1865-0.5506-0.1965-0.5434-0.2062-0.5359-0.2159-0.5282-0.2255-0.5204-0.2347-0.5122-0.244-0.504-0.253-0.4955-0.2619-0.4869-0.2707-0.4779-0.2792-0.4689-0.2877-0.4596-0.296-0.4501-0.3041-0.4405-0.3121-0.4305-0.3199-0.4205-0.3275-0.4102-0.3351-0.3996-0.3425-0.3891-0.3496-0.3781-0.3568-0.367-0.3636-0.3558-0.3704-0.3442-0.377-0.3326-0.3835-0.3206-0.3897-0.3086-0.3959-0.2963-0.4019-0.2838-0.4077-0.2711-0.4134-0.2582-0.4189-0.2451-0.4243-0.2318-0.4296-0.2183-0.4346-0.2046-0.4395-0.1907-0.4443-0.1766-0.449-0.1623-0.4533-0.1478-0.4577-0.1331-0.4619-0.1182-0.4658-0.103-0.4697-0.0878-0.4734-0.0723-0.477-0.0565-0.4803-0.0407-0.4836-0.0245-0.4867-0.0082-0.4866 0.0082-0.4836 0.0245-0.4804 0.0407-0.4769 0.0565-0.4734 0.0723-0.4697 0.0878-0.4659 0.103-0.4618 0.1182-0.4577 0.1331-0.4534 0.1478-0.4489 0.1623-0.4443 0.1766-0.4395 0.1907-0.4347 0.2046-0.4295 0.2183-0.4243 0.2318-0.419 0.2451-0.4134 0.2582-0.4077 0.2711-0.4019 0.2838-0.3958 0.2963-0.3898 0.3086-0.3834 0.3206-0.377 0.3326-0.3704 0.3442-0.3637 0.3558-0.3567 0.367-0.3497 0.3781-0.3424 0.3891-0.3351 0.3996-0.3276 0.4102-0.3199 0.4205-0.3121 0.4305-0.3041 0.4405-0.2959 0.4501-0.2877 0.4596-0.2793 0.4689-0.2706 0.4779-0.2619 0.4869-0.253 0.4955-0.244 0.504-0.2348 0.5122-0.2254 0.5204-0.2159 0.5282-0.2063 0.5359-0.1964 0.5434-0.1865 0.5506-0.1764 0.5577-0.166 0.5646-0.1557 0.5712-0.1451 0.5777-0.1344 0.584-0.1234 0.5901-0.1125 0.5959-0.1012 0.6016-0.09 0.607-0.0784 0.6123-0.0668 0.6174-0.0549 0.6222-0.0431 0.6269-0.0309 0.6313-0.0187 0.6356-0.0062 0.6397 0.0062 0.6397 0.0187 0.6356 0.0309 0.6313 0.0431 0.6269 0.0549 0.6222 0.0668 0.6174 0.0784 0.6123 0.09 0.607 0.1012 0.6016 0.1125 0.5959 0.1234 0.5901 0.1344 0.5839 0.1451 0.5778 0.1557 0.5712 0.166 0.5646 0.1764 0.5577 0.1865 0.5506 0.1964 0.5434 0.2063 0.5359 0.2159 0.5282 0.2254 0.5203 0.2348 0.5123 0.244 0.504 0.253 0.4955 0.2619 0.4868 0.2706 0.478 0.2793 0.4689 0.2877 0.4596 0.2959 0.4501 0.3041 0.4404 0.3121 0.4306 0.3199 0.4204 0.3276 0.4102 0.3351 0.3997 0.3424 0.389 0.3497 0.3782 0.3567 0.367 0.3637 0.3557 0.3704 0.3443 0.377 0.3326 0.3834 0.3206 0.3898 0.3086 0.3958 0.2963 0.4019 0.2838 0.4077 0.2711 0.4134 0.2582 0.419 0.2451 0.4243 0.2318 0.4295 0.2183 0.4347 0.2046 0.4395 0.1907 0.4443 0.1766 0.4489 0.1623 0.4534 0.1478 0.4577 0.1331 0.4618 0.1181 0.4659 0.1031 0.4697 0.0878 0.4734 0.0723 0.4769 0.0565 0.4804 0.0407 0.4836 0.0245 0.4866 0.0082 0.4867-0.0082 0.4836-0.0245 0.4803-0.0407 0.477-0.0565 0.4734-0.0723 0.4697-0.0878 0.4658-0.1031 0.4619-0.1181 0.4577-0.1331 0.4533-0.1478 0.449-0.1623 0.4443-0.1766 0.4395-0.1907 0.4346-0.2046 0.4296-0.2183 0.4243-0.2318 0.4189-0.2451 0.4134-0.2582 0.4077-0.2711 0.4019-0.2838 0.3959-0.2963 0.3897-0.3086 0.3835-0.3206 0.377-0.3326 0.3704-0.3443 0.3636-0.3557 0.3568-0.367 0.3496-0.3782 0.3425-0.389 0.3351-0.3997 0.3275-0.4102 0.3199-0.4204 0.3121-0.4306 0.3041-0.4404 0.296-0.4501 0.2877-0.4596 0.2792-0.4689 0.2707-0.478 0.2619-0.4868 0.253-0.4955 0.244-0.504 0.2347-0.5123 0.2255-0.5203 0.2159-0.5282 0.2062-0.5359 0.1965-0.5434 0.1865-0.5506 0.1763-0.5577 0.1661-0.5646 0.1557-0.5712 0.1451-0.5778 0.1343-0.5839 0.1235-0.5901 0.1124-0.5959 0.1013-0.6016 0.0899-0.607 0.0784-0.6123 0.0668-0.6174 0.055-0.6222 0.043-0.6269 0.0309-0.6313 0.0187-0.6356 0.0063-0.6397" fill="currentColor" fill-rule="evenodd" stroke="currentColor" stroke-linecap="square" stroke-linejoin="bevel" stroke-width="9.6"/>
<path transform="matrix(1 0 0 1 37.534 161.06)" d="M14.6928 25.4487L14.6885 25.494L0.00432 0.0602825L0 0" fill="#b9bbbe" stroke="#000" stroke-linecap="square" stroke-linejoin="bevel" stroke-opacity="0" stroke-width="0"/>
</svg>