<?xml version="1.0" standalone="no"?>
<!DOCTYPE svg PUBLIC "-//W3C//DTD SVG 20010904//EN" "http://www.w3.org/TR/2001/REC-SVG-20010904/DTD/svg10.dtd">
<!-- Created using Krita: https://krita.org -->
<svg xmlns="http://www.w3.org/2000/svg" 
    xmlns:xlink="http://www.w3.org/1999/xlink"
    xmlns:krita="http://krita.org/namespaces/svg/krita"
    xmlns:sodipodi="http://sodipodi.sourceforge.net/DTD/sodipodi-0.dtd"
    width="153.6pt"
    height="122.88pt"
    viewBox="0 0 153.6 122.88">
<defs/>
<path id="shape0" transform="matrix(0.24 0 0 0.24 0.000212833580326625 0)" fill="#b9bbbe" stroke-opacity="0" stroke="#000000" stroke-width="0" stroke-linecap="square" stroke-linejoin="bevel" d="M633.819 458.1L476.019 336.14C488.609 312.13 495.999 285.01 495.999 256L495.999 208C495.999 199.16 488.839 192 479.999 192L463.999 192C455.159 192 447.999 199.16 447.999 208L447.999 256C447.999 273.92 444.039 290.8 437.279 306.2L410.729 285.68C413.829 276.28 416.009 266.46 416.009 256.01L416.009 96C416.009 42.98 373.029 0 320.009 0C266.989 0 224.009 42.98 224.009 96L224.009 141.36L45.4691 3.37C38.4891 -2.05 28.4291 -0.8 23.0091 6.18L3.36911 31.45C-2.05089 38.42 -0.800887 48.47 6.17911 53.9L594.539 508.63C601.519 514.06 611.569 512.8 616.999 505.82L636.639 480.55C642.049 473.58 640.799 463.53 633.819 458.1ZM399.999 464L343.999 464L343.999 430.23C355.659 428.63 366.849 425.69 377.669 421.92L327.559 383.19C320.849 383.59 314.149 384.06 307.209 383.39C251.359 377.94 208.469 334.76 196.029 281.54L143.999 241.31L143.999 248.16C143.999 337.8 207.969 417.71 295.999 429.85L295.999 464L239.999 464C231.159 464 223.999 471.16 223.999 480L223.999 496C223.999 504.84 231.159 512 239.999 512L399.999 512C408.839 512 415.999 504.84 415.999 496L415.999 480C415.999 471.16 408.839 464 399.999 464Z" sodipodi:nodetypes="cccccccccccccccccccccccccccccccccccccccccc"/>
</svg>
