<?xml version="1.0" encoding="UTF-8"?>
<!DOCTYPE svg  PUBLIC '-//W3C//DTD SVG 20010904//EN'  'http://www.w3.org/TR/2001/REC-SVG-20010904/DTD/svg10.dtd'>
<svg width="122.88pt" height="122.88pt" viewBox="0 0 122.88 122.88" xmlns="http://www.w3.org/2000/svg">
<path transform="matrix(.24 0 0 .24 1.92 1.92)" d="m248 0c-137 0-248 111-248 248s111 248 248 248 248-111 248-248-111-248-248-248zm144 276c0 6.6-5.4 12-12 12h-92v92c0 6.6-5.4 12-12 12h-56c-6.6 0-12-5.4-12-12v-92h-92c-6.6 0-12-5.4-12-12v-56c0-6.6 5.4-12 12-12h92v-92c0-6.6 5.4-12 12-12h56c6.6 0 12 5.4 12 12v92h92c6.6 0 12 5.4 12 12z" fill="#b9bbbe" stroke="#000" stroke-linecap="square" stroke-linejoin="bevel" stroke-opacity="0" stroke-width="0"/>
</svg>
