<?xml version="1.0" encoding="UTF-8"?>
<!DOCTYPE svg PUBLIC "-//W3C//DTD SVG 20010904//EN" "http://www.w3.org/TR/2001/REC-SVG-20010904/DTD/svg10.dtd">
<svg width="107.52pt" height="122.88pt" viewBox="0 0 107.52 122.88" xmlns="http://www.w3.org/2000/svg">
<path transform="matrix(.24 0 0 .24 4.7684e-7 7.68)" d="m416 176h-144v-144c0-17.67-14.33-32-32-32h-32c-17.67 0-32 14.33-32 32v41.412 102.59h-144c-17.67 0-32 14.33-32 32v32c0 17.67 14.33 32 32 32h144v144c0 17.67 14.33 32 32 32h32c17.67 0 32-14.33 32-32v-144h144c17.67 0 32-14.33 32-32v-32c0-17.67-14.33-32-32-32z" fill="currentColor" stroke="#000" stroke-linecap="square" stroke-linejoin="bevel" stroke-opacity="0" stroke-width="0"/>
</svg>